<?xml version="1.0" standalone="no"?>
<!DOCTYPE svg PUBLIC "-//W3C//DTD SVG 20010904//EN"
 "http://www.w3.org/TR/2001/REC-SVG-20010904/DTD/svg10.dtd">
<svg version="1.0" xmlns="http://www.w3.org/2000/svg"
 width="500.000000pt" height="500.000000pt" viewBox="0 0 500.000000 500.000000"
 preserveAspectRatio="xMidYMid meet">

<g transform="translate(0.000000,500.000000) scale(0.100000,-0.100000)"
fill="#000000" stroke="none">
<path d="M574 4196 c11 -9 26 -16 33 -16 10 0 13 -53 13 -264 l0 -264 -32 -13
c-32 -13 -30 -14 52 -17 47 -2 100 0 119 3 33 6 33 7 12 21 -20 15 -21 22 -21
268 0 270 1 276 51 276 37 0 73 -32 101 -88 20 -42 23 -61 23 -172 0 -176 -27
-254 -100 -286 -44 -19 -3 -18 66 2 72 21 141 91 163 165 36 119 12 243 -58
314 -58 58 -117 74 -295 81 -134 5 -144 4 -127 -10z"/>
<path d="M1558 4061 c21 -19 22 -24 22 -214 0 -187 -1 -196 -20 -202 -48 -15
-13 -25 88 -25 104 0 106 1 84 18 -22 17 -22 21 -22 220 1 111 -1 206 -5 212
-3 5 -43 10 -88 10 -82 -1 -82 -1 -59 -19z"/>
<path d="M1272 4060 c-46 -7 -84 -31 -116 -73 -26 -35 -36 -198 -16 -250 31
-76 84 -109 180 -109 140 0 198 74 188 243 -5 82 -24 128 -68 161 -31 23 -110
36 -168 28z m85 -47 c24 -54 24 -282 0 -336 -13 -31 -21 -38 -39 -35 -13 2
-29 15 -36 31 -30 63 -24 323 9 363 21 26 49 16 66 -23z"/>
<path d="M1763 4051 c-24 -11 -43 -25 -43 -31 0 -7 6 -8 19 0 26 14 64 13 79
-2 8 -8 12 -64 12 -186 0 -168 -1 -174 -22 -193 -23 -18 -22 -18 86 -19 l109
0 -21 23 c-21 22 -22 32 -22 195 0 165 -1 172 -23 198 -32 37 -113 44 -174 15z"/>
<path d="M2110 4051 c-39 -21 -66 -54 -76 -93 -5 -24 -2 -29 22 -38 15 -6 48
-14 72 -17 l44 -6 -15 29 c-8 16 -18 46 -22 66 -6 29 -3 40 14 57 26 26 8 27
-39 2z"/>
<path d="M2208 4058 c17 -17 16 -172 0 -186 -7 -6 -33 -18 -58 -28 -70 -27
-108 -59 -116 -99 -19 -101 65 -159 154 -105 32 20 32 20 32 0 0 -19 7 -20 95
-20 52 0 95 2 95 5 0 2 -13 11 -30 20 l-30 16 0 167 c0 183 -4 198 -60 227
-36 19 -100 21 -82 3z m12 -288 c0 -87 -2 -100 -17 -100 -46 0 -70 78 -42 133
11 21 49 67 56 67 2 0 3 -45 3 -100z"/>
<path d="M1287 3432 c-31 -34 -16 -83 30 -97 32 -9 77 36 68 68 -14 46 -68 62
-98 29z"/>
<path d="M1490 3400 c-12 -8 -12 -10 3 -16 16 -6 17 -30 17 -286 0 -278 0
-280 -22 -299 -23 -18 -22 -18 87 -18 109 0 110 0 88 18 -23 19 -23 21 -23
309 0 255 -2 291 -16 296 -24 9 -117 7 -134 -4z"/>
<path d="M650 3362 c-104 -3 -112 -4 -85 -16 27 -12 38 -35 129 -264 54 -139
105 -261 113 -271 19 -28 77 -37 107 -18 21 14 52 94 40 106 -2 2 -4 -1 -4 -7
0 -20 -39 -13 -50 9 -6 11 -44 111 -85 222 -73 199 -74 202 -54 219 11 9 16
18 12 20 -5 2 -60 2 -123 0z"/>
<path d="M927 3348 c56 -27 77 -172 50 -333 -9 -49 -15 -91 -13 -92 1 -2 20
58 41 132 46 165 82 243 126 278 l34 27 -130 -1 c-99 0 -125 -3 -108 -11z"/>
<path d="M1230 3231 c0 -5 7 -11 15 -15 13 -4 15 -37 15 -204 0 -196 0 -200
-22 -215 -22 -15 -16 -16 85 -16 59 -1 107 2 107 7 0 4 -9 13 -20 20 -19 12
-20 23 -20 216 0 177 -2 205 -16 210 -25 9 -144 7 -144 -3z"/>
<path d="M1718 3224 c22 -16 22 -21 22 -211 0 -190 -1 -195 -22 -214 -23 -18
-22 -18 86 -19 l109 0 -21 23 c-21 22 -22 33 -22 185 0 149 2 164 20 182 24
24 72 26 91 4 9 -11 14 -66 17 -182 l5 -166 -29 -23 -29 -23 115 1 c107 0 114
1 93 16 -22 15 -23 20 -23 189 l0 174 -29 32 c-28 31 -34 33 -95 33 -51 0 -71
-5 -95 -23 -38 -28 -39 -28 -43 6 -3 27 -3 27 -88 29 -80 2 -84 2 -62 -13z"/>
<path d="M2180 3208 c-24 -13 -46 -29 -48 -37 -4 -11 1 -10 19 2 28 20 70 22
87 5 8 -8 12 -64 12 -186 0 -168 -1 -174 -22 -193 -23 -18 -22 -18 87 -18 108
0 110 0 88 18 -21 17 -22 27 -25 199 -3 171 -4 183 -25 203 -33 34 -115 37
-173 7z"/>
<path d="M2522 3210 c-34 -15 -47 -29 -63 -65 -11 -25 -18 -49 -15 -54 6 -10
85 -31 115 -31 19 0 19 2 5 35 -20 49 -18 111 4 124 29 18 -1 12 -46 -9z"/>
<path d="M2619 3216 c19 -22 27 -152 11 -171 -7 -9 -46 -31 -87 -50 -62 -29
-76 -40 -89 -71 -31 -75 10 -144 85 -144 20 0 47 9 61 20 30 24 44 25 36 5 -8
-22 10 -26 105 -23 78 3 82 4 57 17 l-26 13 -4 172 c-2 107 -8 179 -15 192
-16 27 -72 54 -113 54 -27 0 -30 -2 -21 -14z m19 -283 c-3 -97 -3 -98 -28 -98
-32 0 -52 38 -46 88 4 38 48 107 67 107 7 0 9 -35 7 -97z"/>
<path d="M3883 2655 c0 -8 4 -12 9 -9 5 3 6 10 3 15 -9 13 -12 11 -12 -6z"/>
<path d="M530 1575 l0 -85 745 0 745 0 0 85 0 85 -745 0 -745 0 0 -85z"/>
<path d="M2144 1570 c-21 -77 -21 -80 -3 -80 11 0 19 7 19 15 0 8 9 15 20 15
11 0 23 -7 26 -15 9 -22 37 -19 30 3 -2 9 -12 45 -22 80 -24 89 -43 84 -70
-18z m44 -29 c-15 -6 -20 7 -12 31 l8 23 6 -25 c3 -14 2 -27 -2 -29z"/>
<path d="M2350 1570 c0 -64 3 -80 15 -80 11 0 15 11 15 43 l0 42 20 -25 c19
-23 21 -24 34 -7 20 25 24 21 19 -18 -4 -29 -1 -35 14 -35 16 0 18 8 15 80 -4
91 -17 103 -47 43 l-18 -38 -16 37 c-10 23 -23 38 -33 38 -16 0 -18 -10 -18
-80z"/>
<path d="M2520 1570 l0 -80 45 0 c39 0 45 3 45 21 0 18 -4 20 -30 14 -26 -6
-30 -4 -30 14 0 12 8 21 23 24 l22 4 -22 8 c-16 5 -23 15 -23 32 0 22 3 24 30
18 23 -5 30 -3 30 9 0 12 -11 16 -45 16 l-45 0 0 -80z"/>
<path d="M2640 1570 l0 -80 45 0 c38 0 45 3 45 20 0 16 -5 19 -30 14 l-30 -6
0 66 c0 52 -3 66 -15 66 -12 0 -15 -16 -15 -80z"/>
<path d="M2765 1570 c0 -66 3 -80 15 -80 12 0 15 8 12 35 -4 32 -2 35 23 35
25 0 27 -3 23 -35 -3 -27 0 -35 12 -35 13 0 16 14 15 80 0 55 -4 80 -12 80 -6
0 -13 -15 -15 -32 -2 -25 -8 -33 -23 -33 -15 0 -21 8 -23 33 -2 17 -9 32 -15
32 -8 0 -12 -25 -12 -80z"/>
<path d="M2897 1643 c-7 -11 -6 -113 0 -136 4 -14 13 -17 46 -15 l42 3 3 78 3
77 -45 0 c-25 0 -47 -3 -49 -7z m63 -68 c0 -48 -2 -55 -20 -55 -18 0 -20 7
-20 55 0 48 2 55 20 55 18 0 20 -7 20 -55z"/>
<path d="M3020 1570 c0 -64 3 -80 15 -80 10 0 15 10 15 30 0 19 5 30 14 30 8
0 17 -13 21 -30 4 -16 12 -30 19 -30 8 0 12 26 14 80 l2 80 -50 0 -50 0 0 -80z
m70 30 c0 -23 -4 -30 -20 -30 -16 0 -20 7 -20 30 0 23 4 30 20 30 16 0 20 -7
20 -30z"/>
<path d="M3234 1570 l1 -81 45 3 45 3 3 78 3 77 -49 0 -49 0 1 -80z m66 5 c0
-48 -2 -55 -20 -55 -17 0 -20 7 -20 48 0 51 5 62 27 62 9 0 13 -16 13 -55z"/>
<path d="M3384 1570 c-21 -77 -21 -80 -3 -80 11 0 19 7 19 15 0 8 9 15 20 15
11 0 23 -7 26 -15 9 -22 37 -19 30 3 -2 9 -12 45 -22 80 -24 89 -43 84 -70
-18z m44 -29 c-15 -6 -20 7 -12 31 l8 23 6 -25 c3 -14 2 -27 -2 -29z"/>
<path d="M3592 1573 l3 -78 40 0 c34 0 40 3 43 23 2 15 -2 22 -13 22 -9 0 -13
-4 -10 -10 3 -5 -3 -10 -14 -10 -19 0 -21 6 -21 55 0 42 3 55 15 55 8 0 15 -7
15 -15 0 -8 7 -15 15 -15 9 0 15 9 15 25 0 23 -4 25 -45 25 l-46 0 3 -77z"/>
<path d="M3715 1570 c0 -65 3 -80 15 -80 12 0 14 14 12 80 -2 53 -8 80 -15 80
-8 0 -12 -25 -12 -80z"/>
<path d="M3780 1570 l0 -81 48 3 47 3 0 75 0 75 -47 3 -48 3 0 -81z m70 5 c0
-48 -2 -55 -20 -55 -18 0 -20 7 -20 55 0 48 2 55 20 55 18 0 20 -7 20 -55z"/>
<path d="M3940 1608 c-6 -24 -15 -56 -20 -72 -6 -16 -10 -33 -10 -37 0 -15 28
-10 34 6 3 8 15 15 26 15 11 0 20 -7 20 -15 0 -8 8 -15 19 -15 18 0 18 3 -3
77 -26 94 -49 108 -66 41z m40 -55 c0 -7 -6 -13 -14 -13 -9 0 -12 8 -8 26 3
19 7 22 13 12 5 -7 9 -19 9 -25z"/>
<path d="M4065 1570 l0 -81 45 3 45 3 3 78 3 77 -48 0 -48 0 0 -80z m65 5 c0
-48 -2 -55 -20 -55 -18 0 -20 7 -20 55 0 48 2 55 20 55 18 0 20 -7 20 -55z"/>
<path d="M4190 1570 l0 -80 45 0 c38 0 45 3 45 20 0 16 -5 19 -30 14 -26 -6
-30 -4 -30 15 0 14 6 21 20 21 11 0 20 4 20 9 0 5 -9 11 -20 14 -12 3 -20 14
-20 27 0 19 4 21 30 15 23 -5 30 -3 30 9 0 12 -11 16 -45 16 l-45 0 0 -80z"/>
</g>
</svg>
